<?xml version="1.0" encoding="UTF-8"?>
<svg version="1.1" xmlns="http://www.w3.org/2000/svg" width="500" height="500">
<path d="M0 0 C1.68443449 -0.00692075 3.36885991 -0.01645498 5.05326653 -0.02836347 C9.66345761 -0.05333996 14.27290056 -0.04106374 18.88309383 -0.02244616 C23.86207507 -0.00884751 28.84092939 -0.02983629 33.81988525 -0.04632568 C43.56632681 -0.07298614 53.31249091 -0.06725139 63.05894327 -0.04984984 C70.98103007 -0.03629189 78.9030392 -0.03446513 86.82513428 -0.04099274 C88.51729216 -0.04237183 88.51729216 -0.04237183 90.24363506 -0.04377879 C92.53545843 -0.04569717 94.82728178 -0.04764245 97.1191051 -0.04961434 C118.60258797 -0.06671795 140.08591714 -0.04706051 161.5693748 -0.01481214 C179.99766146 0.0119939 198.42572134 0.0073376 216.85400391 -0.02032471 C238.26132757 -0.05244381 259.66851658 -0.06507004 281.07586098 -0.04665112 C283.35918806 -0.04473986 285.64251516 -0.04285363 287.92584229 -0.04099274 C289.04924228 -0.04006708 290.17264227 -0.03914143 291.33008468 -0.03818773 C299.24139064 -0.03301018 307.15261109 -0.04174505 315.06390381 -0.05587006 C324.70700514 -0.07270884 334.34981348 -0.06812168 343.9928813 -0.03618559 C348.91170086 -0.02043151 353.83003216 -0.0142166 358.74884796 -0.03408051 C363.25447662 -0.05200045 367.75916591 -0.04206866 372.26470971 -0.01021519 C373.89175563 -0.00353024 375.51888142 -0.00688415 377.14587569 -0.02146992 C386.40940754 -0.09812553 394.14735947 0.32215631 401.37548828 6.76190186 C405.89391319 12.45752552 407.49908469 17.15550085 407.50970936 24.44935131 C407.51206159 25.13589579 407.51441382 25.82244026 407.51683733 26.52978912 C407.52353329 28.84726261 407.52306893 31.16468011 407.5226593 33.48216248 C407.52595755 35.15371992 407.52968304 36.82527657 407.53380078 38.49683219 C407.54383327 43.1036494 407.54753958 47.71045358 407.55019009 52.31728017 C407.55408943 57.28062265 407.56366801 62.24395477 407.57240295 67.20729065 C407.59217761 79.20024832 407.60223474 91.19320685 407.61113074 103.18617675 C407.61551191 108.83109179 407.62087916 114.47600589 407.62611961 120.12092018 C407.64313272 138.88103764 407.65762757 157.64115451 407.66486835 176.4012785 C407.66677831 181.27107939 407.66869863 186.14088028 407.6706543 191.01068115 C407.67113804 192.22107576 407.67162178 193.43147037 407.67212018 194.6785436 C407.68042301 214.29241881 407.70576386 233.90623308 407.73823497 253.52008166 C407.77128603 273.64799738 407.78931534 293.7758821 407.7925126 313.9038251 C407.79467948 325.20865933 407.80345422 336.51340469 407.82897377 347.81821251 C407.85065405 357.4446265 407.85874434 367.07093003 407.84900699 376.69736566 C407.84445458 381.60973533 407.84640319 386.52187698 407.86576843 391.43421555 C407.88334564 395.9317894 407.88244674 400.42896798 407.86687114 404.92654572 C407.86448678 406.55310653 407.86886142 408.17969433 407.88069979 409.80621382 C407.94814231 419.68475332 407.64999588 426.67870362 401.06298828 434.51190186 C395.50326197 439.16655645 391.45731896 441.2605937 384.17019939 441.27085304 C383.47626199 441.277266 382.78232458 441.28367895 382.06735876 441.29028624 C379.74847875 441.30685287 377.4306365 441.29505153 375.11174011 441.28329468 C373.4299002 441.28933768 371.74806579 441.29711664 370.06624109 441.30647981 C365.44942568 441.32705837 360.83292056 441.32267165 356.21607959 441.31411862 C351.23501724 441.30918745 346.25402993 441.32720837 341.272995 441.3421936 C331.51617722 441.3677016 321.7594695 441.37127322 312.002624 441.36659308 C304.07189486 441.3630278 296.14119915 441.36652371 288.21047401 441.37504196 C286.51770642 441.37682753 286.51770642 441.37682753 284.79074151 441.37864917 C282.49819355 441.38107266 280.2056456 441.38350093 277.91309766 441.38593392 C256.40963845 441.40769065 234.90624195 441.40335737 213.4027792 441.39116423 C193.73226077 441.38082682 174.06194046 441.40333319 154.39146122 441.44136067 C134.1933309 441.4801088 113.99529432 441.49663091 93.79712659 441.48911417 C82.4576076 441.48528856 71.11825722 441.49028028 59.77876854 441.51854324 C50.12463443 441.54236198 40.47077268 441.54519099 30.81663486 441.52096291 C25.89174724 441.50917859 20.9673579 441.50700399 16.04250336 441.53096771 C11.53122583 441.55266371 7.02086321 441.54650692 2.50962869 441.51844434 C0.88046532 441.5131442 -0.74876949 441.51790359 -2.37786279 441.53391607 C-11.64774138 441.61868325 -19.39207626 441.20968912 -26.62451172 434.76190186 C-31.14508927 429.06316577 -32.74727386 424.36162611 -32.76431942 417.06442165 C-32.76727084 416.376788 -32.77022227 415.68915434 -32.77326313 414.9806833 C-32.781976 412.65948918 -32.78353675 410.33834477 -32.78514099 408.01713562 C-32.78987049 406.34287843 -32.79502119 404.66862238 -32.80055863 402.99436766 C-32.81448569 398.38001391 -32.82205425 393.76566807 -32.82853162 389.15129864 C-32.83489689 385.19673696 -32.84496781 381.2421883 -32.85509228 377.28763472 C-32.88843785 364.25690976 -32.90994192 351.22617688 -32.92829213 338.19542322 C-32.93308617 334.80290564 -32.9380696 331.41038838 -32.94309735 328.01787114 C-32.97406802 306.95691985 -33.00075735 285.89596582 -33.01751614 264.83499813 C-33.02146573 259.95524529 -33.02546871 255.07549249 -33.02954102 250.19573975 C-33.03054938 248.98287914 -33.03155774 247.77001854 -33.03259666 246.52040458 C-33.04960396 226.87228132 -33.09071291 207.224284 -33.141564 187.57622223 C-33.19332765 167.40987804 -33.22245678 147.24359863 -33.22971302 127.07718855 C-33.2343769 115.75211746 -33.24914528 104.42725259 -33.28945732 93.10224724 C-33.32374748 83.45719318 -33.3377007 73.81238253 -33.32503318 64.16727101 C-33.31920394 59.24644138 -33.32308911 54.32612662 -33.35320282 49.40537453 C-33.3805635 44.89767051 -33.38006812 40.39084718 -33.35769237 35.88312358 C-33.35446966 34.25517306 -33.36133663 32.62716358 -33.37948959 30.99931108 C-33.47591774 21.79165316 -33.27832397 13.8610163 -26.62451172 6.76190186 C-18.89127404 -0.48002233 -9.9313867 -0.08903343 0 0 Z " fill="#31688B" transform="translate(62.62451171875,29.23809814453125)"/>
<path d="M0 0 C2.01022522 -0.00218635 4.01990103 -0.02036405 6.0300293 -0.03930664 C7.30426758 -0.04124023 8.57850586 -0.04317383 9.89135742 -0.04516602 C11.63630493 -0.05132935 11.63630493 -0.05132935 13.41650391 -0.05761719 C18.00873831 0.29470552 21.54522664 2.09176501 25.58276367 4.18530273 C25.58276367 5.17530273 25.58276367 6.16530273 25.58276367 7.18530273 C26.24276367 7.18530273 26.90276367 7.18530273 27.58276367 7.18530273 C28.07776367 9.66030273 28.07776367 9.66030273 28.58276367 12.18530273 C29.24276367 12.18530273 29.90276367 12.18530273 30.58276367 12.18530273 C30.58276367 92.70530273 30.58276367 173.22530273 30.58276367 256.18530273 C29.92276367 256.18530273 29.26276367 256.18530273 28.58276367 256.18530273 C28.58276367 257.17530273 28.58276367 258.16530273 28.58276367 259.18530273 C27.92276367 259.18530273 27.26276367 259.18530273 26.58276367 259.18530273 C26.48995117 260.32999023 26.48995117 260.32999023 26.39526367 261.49780273 C25.58276367 264.18530273 25.58276367 264.18530273 23.27026367 265.93530273 C18.73024985 268.04693707 14.99968655 268.31327868 9.98901367 268.31811523 C8.71155273 268.3194043 7.4340918 268.32069336 6.11791992 268.32202148 C5.45550293 268.31992676 4.79308594 268.31783203 4.1105957 268.31567383 C2.08952325 268.31032064 0.06867301 268.31563037 -1.95239258 268.32202148 C-3.22985352 268.32073242 -4.50731445 268.31944336 -5.82348633 268.31811523 C-6.99202148 268.3169873 -8.16055664 268.31585938 -9.36450195 268.31469727 C-11.91285288 268.20668175 -13.99584499 267.93510011 -16.41723633 267.18530273 C-16.41723633 266.52530273 -16.41723633 265.86530273 -16.41723633 265.18530273 C-17.07723633 265.18530273 -17.73723633 265.18530273 -18.41723633 265.18530273 C-18.41723633 264.52530273 -18.41723633 263.86530273 -18.41723633 263.18530273 C-19.01536133 263.10280273 -19.61348633 263.02030273 -20.22973633 262.93530273 C-23.17948414 261.92396063 -23.96677395 260.94118126 -25.41723633 258.18530273 C-25.60473633 254.43530273 -25.60473633 254.43530273 -25.41723633 251.18530273 C-26.07723633 251.18530273 -26.73723633 251.18530273 -27.41723633 251.18530273 C-27.48569952 221.51127942 -27.53877848 191.83725985 -27.57043232 162.16317412 C-27.57418436 158.65850593 -27.57806733 155.15383789 -27.58203125 151.64916992 C-27.58281818 150.95146455 -27.58360511 150.25375918 -27.58441589 149.53491122 C-27.59746367 138.24326965 -27.62111405 126.95167398 -27.64869472 115.66005963 C-27.6767664 104.0706157 -27.69319181 92.48119853 -27.69950181 80.8917222 C-27.70341366 74.38343205 -27.71261137 67.87524595 -27.7344265 61.36698914 C-27.754795 55.24065466 -27.76106931 49.11446708 -27.75655937 42.98810196 C-27.7573844 40.74032417 -27.76334776 38.49254144 -27.77485275 36.24479294 C-27.78980227 33.17330996 -27.78618067 30.10237986 -27.77799988 27.03088379 C-27.7867384 26.14370462 -27.79547693 25.25652545 -27.80448025 24.34246206 C-27.74899284 16.62250463 -26.06801235 9.83607876 -20.41723633 4.18530273 C-18.16723633 3.37280273 -18.16723633 3.37280273 -16.41723633 3.18530273 C-16.41723633 2.52530273 -16.41723633 1.86530273 -16.41723633 1.18530273 C-11.09871898 -0.45198074 -5.5090903 -0.00067209 0 0 Z " fill="#FBFCFC" transform="translate(279.417236328125,73.814697265625)"/>
<path d="M0 0 C1.05832031 -0.02900391 2.11664063 -0.05800781 3.20703125 -0.08789062 C11.15646835 -0.15272292 14.30323201 1.12686909 20.1875 6.375 C22.73826201 9.30365268 22.9991478 11.8076607 22.97265625 15.54296875 C22.96943359 16.34541016 22.96621094 17.14785156 22.96289062 17.97460938 C22.95032227 19.22467773 22.95032227 19.22467773 22.9375 20.5 C22.93298828 21.34498047 22.92847656 22.18996094 22.92382812 23.06054688 C22.91205403 25.14456155 22.8941189 27.22853977 22.875 29.3125 C23.535 29.3125 24.195 29.3125 24.875 29.3125 C24.93034912 30.13975586 24.98569824 30.96701172 25.04272461 31.81933594 C25.2504542 34.89831653 25.46142016 37.97705367 25.67456055 41.05566406 C25.81092212 43.03954389 25.94356882 45.02367791 26.07617188 47.0078125 C26.20668945 48.88339844 26.20668945 48.88339844 26.33984375 50.796875 C26.418396 51.94897461 26.49694824 53.10107422 26.57788086 54.28808594 C26.82098214 56.7626452 27.2458352 58.92323369 27.875 61.3125 C27.94290675 63.56157152 27.95999984 65.81251605 27.9375 68.0625 C27.92847656 69.23296875 27.91945313 70.4034375 27.91015625 71.609375 C27.89855469 72.50140625 27.88695312 73.3934375 27.875 74.3125 C28.535 74.3125 29.195 74.3125 29.875 74.3125 C29.92804543 75.20452873 29.92804543 75.20452873 29.98216248 76.11457825 C30.35049752 82.29519232 30.7244951 88.47544513 31.10180664 94.65551758 C31.24193735 96.96304664 31.3806162 99.27066434 31.51782227 101.57836914 C31.71510745 104.89233295 31.91758445 108.20594457 32.12109375 111.51953125 C32.1815538 112.5539888 32.24201385 113.58844635 32.30430603 114.6542511 C32.36429276 115.6150206 32.42427948 116.5757901 32.48608398 117.56567383 C32.53715805 118.41172684 32.58823212 119.25777985 32.64085388 120.12947083 C32.81549159 122.4893936 32.81549159 122.4893936 33.875 125.3125 C34.13267308 128.55488627 34.31746808 131.79112321 34.48046875 135.0390625 C34.38181691 138.46814977 34.38181691 138.46814977 35.875 141.3125 C39.19860192 155.67149891 39.05040472 170.65646084 38.875 185.3125 C39.535 185.3125 40.195 185.3125 40.875 185.3125 C41.21709022 191.28686141 41.51112059 197.26084876 41.75048828 203.24023438 C41.83308578 205.27828704 41.92253603 207.31607423 42.01904297 209.35351562 C42.14962621 212.29809603 42.23634657 215.24106352 42.3125 218.1875 C42.35890625 219.09516113 42.4053125 220.00282227 42.453125 220.93798828 C42.54832393 226.73538663 41.52475711 229.75118951 37.48339844 233.95410156 C29.56770135 240.63942922 17.82415567 239.41026599 8.0625 239.5625 C6.84385254 239.59476685 6.84385254 239.59476685 5.60058594 239.62768555 C-1.75693452 239.6678533 -6.64805438 237.30618571 -12.125 232.3125 C-12.125 231.6525 -12.125 230.9925 -12.125 230.3125 C-12.785 230.3125 -13.445 230.3125 -14.125 230.3125 C-15.34529198 215.63167344 -16.49916743 201.05053918 -16.125 186.3125 C-16.785 186.3125 -17.445 186.3125 -18.125 186.3125 C-18.125 181.3625 -18.125 176.4125 -18.125 171.3125 C-18.785 171.3125 -19.445 171.3125 -20.125 171.3125 C-20.92085256 160.625337 -21.25325004 150.02850323 -21.125 139.3125 C-21.785 139.3125 -22.445 139.3125 -23.125 139.3125 C-23.99657852 128.62009925 -24.24313543 118.03657184 -24.125 107.3125 C-24.785 107.3125 -25.445 107.3125 -26.125 107.3125 C-26.18558594 106.54164063 -26.24617188 105.77078125 -26.30859375 104.9765625 C-26.39238281 103.97367187 -26.47617187 102.97078125 -26.5625 101.9375 C-26.64371094 100.93976563 -26.72492188 99.94203125 -26.80859375 98.9140625 C-26.97465626 96.33322387 -26.97465626 96.33322387 -28.125 94.3125 C-28.35231845 91.8168535 -28.52682615 89.34085759 -28.66015625 86.83984375 C-28.70313339 86.08393448 -28.74611053 85.32802521 -28.79039001 84.54920959 C-28.88076336 82.93779442 -28.96887647 81.32625116 -29.05493164 79.71459961 C-29.18420515 77.31125513 -29.32295632 74.90860355 -29.46289062 72.50585938 C-30.04649331 62.09807669 -30.2375231 51.73547333 -30.125 41.3125 C-30.785 41.3125 -31.445 41.3125 -32.125 41.3125 C-32.125 36.6925 -32.125 32.0725 -32.125 27.3125 C-32.785 27.3125 -33.445 27.3125 -34.125 27.3125 C-34.125 22.6925 -34.125 18.0725 -34.125 13.3125 C-33.465 13.3125 -32.805 13.3125 -32.125 13.3125 C-31.795 11.6625 -31.465 10.0125 -31.125 8.3125 C-30.465 8.3125 -29.805 8.3125 -29.125 8.3125 C-29.125 7.6525 -29.125 6.9925 -29.125 6.3125 C-27.8023231 5.48276519 -26.46607327 4.67466024 -25.125 3.875 C-24.3825 3.42253906 -23.64 2.97007813 -22.875 2.50390625 C-15.85667922 -0.53670147 -7.52072567 0.06920913 0 0 Z " fill="#FDFDFD" transform="translate(354.125,102.6875)"/>
<path d="M0 0 C1.01642578 -0.03738281 2.03285156 -0.07476562 3.08007812 -0.11328125 C9.75550785 -0.19085242 14.85462397 0.60778108 19.8125 5.375 C21.70776098 8.52134077 22.01621803 10.70807549 21.8125 14.375 C22.4725 14.375 23.1325 14.375 23.8125 14.375 C23.8125 84.005 23.8125 153.635 23.8125 225.375 C23.1525 225.375 22.4925 225.375 21.8125 225.375 C21.668125 226.468125 21.52375 227.56125 21.375 228.6875 C20.8125 232.375 20.8125 232.375 19.8125 235.375 C16.2087102 236.89660014 13.76029314 237.375 9.8125 237.375 C9.8125 238.035 9.8125 238.695 9.8125 239.375 C6.7291866 239.40411321 3.64590875 239.42183682 0.5625 239.4375 C-0.74654297 239.45006836 -0.74654297 239.45006836 -2.08203125 239.46289062 C-2.92636719 239.46611328 -3.77070312 239.46933594 -4.640625 239.47265625 C-5.41567383 239.47789307 -6.19072266 239.48312988 -6.98925781 239.48852539 C-9.18033598 239.37536998 -11.08387861 238.98052448 -13.1875 238.375 C-13.1875 237.715 -13.1875 237.055 -13.1875 236.375 C-13.8475 236.375 -14.5075 236.375 -15.1875 236.375 C-15.1875 235.715 -15.1875 235.055 -15.1875 234.375 C-16.363125 234.00375 -16.363125 234.00375 -17.5625 233.625 C-20.1875 232.375 -20.1875 232.375 -21.4375 230.6875 C-23.32609847 224.86432139 -23.33335105 218.85259594 -23.32121277 212.79772949 C-23.3246111 211.54047412 -23.3246111 211.54047412 -23.32807809 210.25781965 C-23.33438371 207.46288119 -23.33359095 204.66799164 -23.33276367 201.87304688 C-23.33575724 199.8636926 -23.33916022 197.85433891 -23.34294128 195.84498596 C-23.35176361 190.39675404 -23.35411861 184.94853783 -23.35475707 179.50029945 C-23.35546837 176.0955705 -23.35760417 172.69084552 -23.36025429 169.28611755 C-23.36950058 157.40607449 -23.37358991 145.52604264 -23.37280273 133.64599609 C-23.37220155 122.5743553 -23.38276326 111.50276317 -23.3985464 100.4311347 C-23.41162024 90.92098178 -23.41698672 81.41084477 -23.41634732 71.90068293 C-23.41609237 66.22254378 -23.4189425 60.54444793 -23.42952538 54.86631775 C-23.43920413 49.52784993 -23.43928703 44.18946682 -23.43200874 38.85099602 C-23.43096276 36.89305943 -23.43332662 34.93511756 -23.4393692 32.97719002 C-23.44708979 30.30211724 -23.4424439 27.62733701 -23.43473816 24.95227051 C-23.43988172 24.17979084 -23.44502529 23.40731116 -23.45032471 22.61142302 C-23.42000256 17.83959916 -22.69348048 13.90866245 -21.1875 9.375 C-20.5275 9.375 -19.8675 9.375 -19.1875 9.375 C-19.105 8.75625 -19.0225 8.1375 -18.9375 7.5 C-18.1875 5.375 -18.1875 5.375 -16.125 4.125 C-15.485625 3.8775 -14.84625 3.63 -14.1875 3.375 C-14.1875 2.715 -14.1875 2.055 -14.1875 1.375 C-9.53466463 -0.17594512 -4.87457155 0.0667334 0 0 Z " fill="#FCFCFD" transform="translate(131.1875,102.625)"/>
<path d="M0 0 C25.08 0 50.16 0 76 0 C76 28.38 76 56.76 76 86 C50.92 86 25.84 86 0 86 C0 57.62 0 29.24 0 0 Z " fill="#FDFDFD" transform="translate(166,199)"/>
<path d="M0 0 C2.21463013 -0.36076355 2.21463013 -0.36076355 5.00048828 -0.34057617 C6.56188034 -0.34023628 6.56188034 -0.34023628 8.15481567 -0.33988953 C9.28192963 -0.32440567 10.40904358 -0.30892181 11.5703125 -0.29296875 C13.29735916 -0.28660149 13.29735916 -0.28660149 15.05929565 -0.28010559 C18.74809855 -0.26327052 22.43636136 -0.22560874 26.125 -0.1875 C28.62108588 -0.17245944 31.11718029 -0.15876995 33.61328125 -0.14648438 C39.74237275 -0.1133512 45.8711478 -0.06310389 52 0 C52 0.66 52 1.32 52 2 C52.969375 2.268125 53.93875 2.53625 54.9375 2.8125 C55.948125 3.204375 56.95875 3.59625 58 4 C58.495 5.485 58.495 5.485 59 7 C59.66 7 60.32 7 61 7 C61 7.66 61 8.32 61 9 C61.66 9 62.32 9 63 9 C64.83949854 15.20830756 65.19259753 21.00568736 65.1875 27.4375 C65.18814453 28.24300293 65.18878906 29.04850586 65.18945312 29.87841797 C65.13491444 35.73017112 65.13491444 35.73017112 64 38 C38.92 38 13.84 38 -12 38 C-12 16 -12 16 -11 10 C-10.34 10 -9.68 10 -9 10 C-9 9.34 -9 8.68 -9 8 C-8.34 8 -7.68 8 -7 8 C-6.67 7.01 -6.34 6.02 -6 5 C-4.67532254 4.3162955 -3.34136367 3.65035814 -2 3 C-1.34 2.01 -0.68 1.02 0 0 Z " fill="#F8F9FA" transform="translate(178,141)"/>
<path d="M0 0 C9.89189376 -0.02312428 19.78378114 -0.04091552 29.67569637 -0.05181217 C34.2684264 -0.05704082 38.861138 -0.06413812 43.45385742 -0.07543945 C47.88233688 -0.086269 52.31079856 -0.09227698 56.73929024 -0.09487724 C58.43265628 -0.09673137 60.12602129 -0.10035175 61.81937981 -0.10573006 C64.18291232 -0.1129414 66.54637045 -0.1139909 68.90991211 -0.11352539 C69.61697296 -0.11712067 70.32403381 -0.12071594 71.05252075 -0.12442017 C75.88594784 -0.11405216 75.88594784 -0.11405216 77 1 C77.12879153 3.82442811 77.18974794 6.61239534 77.1875 9.4375 C77.18814453 10.2526709 77.18878906 11.0678418 77.18945312 11.90771484 C77.13801422 17.78694835 76.5990217 23.31776218 75 29 C74.34 29 73.68 29 73 29 C73 29.66 73 30.32 73 31 C72.34 31 71.68 31 71 31 C71 31.66 71 32.32 71 33 C69.35 33.33 67.7 33.66 66 34 C66 34.66 66 35.32 66 36 C63.10541979 36.96486007 61.2510461 37.13174388 58.24072266 37.14526367 C57.27607086 37.15164352 56.31141907 37.15802338 55.3175354 37.16459656 C54.27688934 37.16570938 53.23624329 37.1668222 52.1640625 37.16796875 C51.09255951 37.17129715 50.02105652 37.17462555 48.91708374 37.17805481 C46.64915395 37.18311996 44.38121669 37.18546326 42.11328125 37.18530273 C38.64570811 37.18748696 35.17845424 37.205641 31.7109375 37.22460938 C29.50781359 37.22754383 27.30468817 37.22952828 25.1015625 37.23046875 C23.54666611 37.24124702 23.54666611 37.24124702 21.96035767 37.25224304 C20.98940155 37.24916641 20.01844543 37.24608978 19.01806641 37.24291992 C18.16773834 37.24434494 17.31741028 37.24576996 16.4413147 37.24723816 C11.83585533 36.78083156 7.72412475 34.68964565 4 32 C3.1875 29.8125 3.1875 29.8125 3 28 C2.34 28 1.68 28 1 28 C-0.25406138 22.21354356 -0.11186913 16.51131884 -0.0625 10.625 C-0.05798828 9.60277344 -0.05347656 8.58054687 -0.04882812 7.52734375 C-0.037103 5.01816806 -0.02069176 2.5091151 0 0 Z " fill="#F9FAFB" transform="translate(166,305)"/>
<path d="M0 0 C0.89912109 -0.03738281 1.79824219 -0.07476562 2.72460938 -0.11328125 C7.06983895 -0.17066506 10.35773291 -0.11585034 13.921875 2.55078125 C16.5879614 5.70042254 17.06100108 6.88493111 16.875 10.9375 C16.85566406 11.86691406 16.83632812 12.79632813 16.81640625 13.75390625 C16.25204091 16.68948099 15.27104442 18.15531632 13.3125 20.375 C13.951875 20.684375 14.59125 20.99375 15.25 21.3125 C17.3125 22.375 17.3125 22.375 18.3125 23.375 C18.9806048 28.52895131 19.19705578 32.20356126 16 36.4375 C11.07340843 39.98922881 6.57695246 39.55819331 0.75 39.5625 C-0.12591797 39.57474609 -1.00183594 39.58699219 -1.90429688 39.59960938 C-2.74154297 39.60154297 -3.57878906 39.60347656 -4.44140625 39.60546875 C-5.59104858 39.61163208 -5.59104858 39.61163208 -6.76391602 39.61791992 C-8.6875 39.375 -8.6875 39.375 -10.6875 37.375 C-10.8749551 34.66189351 -10.94315406 32.05270915 -10.91796875 29.33984375 C-10.91751053 28.5459877 -10.91705231 27.75213165 -10.9165802 26.93421936 C-10.91355765 25.25552883 -10.90567125 23.5768411 -10.89331055 21.89819336 C-10.87504885 19.31939842 -10.87280087 16.74096223 -10.87304688 14.16210938 C-10.86813196 12.53385104 -10.86230376 10.90559516 -10.85546875 9.27734375 C-10.85435593 8.50132309 -10.8532431 7.72530243 -10.85209656 6.92576599 C-10.77720442 -1.45831148 -7.40317249 0.11429459 0 0 Z " fill="#F8FAFB" transform="translate(219.6875,357.625)"/>
<path d="M0 0 C2.0625 0.4375 2.0625 0.4375 4 1 C4.25394531 2.18335938 4.50789063 3.36671875 4.76953125 4.5859375 C5.11698274 6.18233625 5.46465069 7.77868789 5.8125 9.375 C5.97814453 10.14972656 6.14378906 10.92445313 6.31445312 11.72265625 C7.59630353 17.57563359 9.20887184 23.28318388 11 29 C11.16604736 28.3294458 11.33209473 27.6588916 11.50317383 26.96801758 C12.26449957 23.91400015 13.03836329 20.86329409 13.8125 17.8125 C14.07353516 16.75740234 14.33457031 15.70230469 14.60351562 14.61523438 C14.86455078 13.59365234 15.12558594 12.57207031 15.39453125 11.51953125 C15.63018799 10.58214111 15.86584473 9.64475098 16.10864258 8.67895508 C17.07373652 5.7783865 18.22961015 3.49111856 20 1 C22.6875 0.1875 22.6875 0.1875 25 0 C27.20817748 3.43343009 28.66654046 6.60963665 29.82421875 10.51953125 C30.13037109 11.54111328 30.43652344 12.56269531 30.75195312 13.61523438 C31.21504883 15.19788086 31.21504883 15.19788086 31.6875 16.8125 C32.00783203 17.88693359 32.32816406 18.96136719 32.65820312 20.06835938 C33.44496746 22.71047843 34.22533476 25.35431319 35 28 C36.93797974 21.6063972 38.23894732 15.14437935 39.5 8.58789062 C39.665 7.76869141 39.83 6.94949219 40 6.10546875 C40.144375 5.36449951 40.28875 4.62353027 40.4375 3.86010742 C41 2 41 2 43 0 C45.125 0.375 45.125 0.375 47 1 C47.45690361 7.96524167 45.77543592 14.37533383 44.1875 21.125 C43.92646484 22.29160156 43.66542969 23.45820313 43.39648438 24.66015625 C43.13544922 25.78550781 42.87441406 26.91085937 42.60546875 28.0703125 C42.36981201 29.08883301 42.13415527 30.10735352 41.89135742 31.15673828 C40.95262202 34.1511268 39.8227917 36.44860775 38 39 C35.5625 39.6875 35.5625 39.6875 33 39 C29.26219145 34.34426204 27.74313292 29.6611762 26.25 23.9375 C26.02957031 23.14794922 25.80914062 22.35839844 25.58203125 21.54492188 C24.52208843 17.61786665 23.7025976 14.10580535 24 10 C23.34 10 22.68 10 22 10 C21.773125 11.299375 21.54625 12.59875 21.3125 13.9375 C20.28764786 19.02515886 18.97519629 24.00896453 17.5625 29 C17.35729736 29.754021 17.15209473 30.50804199 16.94067383 31.28491211 C15.35114235 36.7659051 15.35114235 36.7659051 12 39 C9.5 39 9.5 39 7 38 C3.62470234 32.66685251 2.59774391 26.7134062 1.3125 20.625 C1.08755859 19.62210937 0.86261719 18.61921875 0.63085938 17.5859375 C-0.58418907 11.94279458 -1.35832387 6.77374683 -1 1 C-0.67 0.67 -0.34 0.34 0 0 Z " fill="#F4F7F9" transform="translate(366,358)"/>
<path d="M0 0 C0.94681641 -0.03738281 1.89363281 -0.07476562 2.86914062 -0.11328125 C7.45210878 -0.17084819 10.77064091 -0.19916244 14.42578125 2.7734375 C17.98649921 6.65467835 18.08832882 8.95602164 18.0390625 14.046875 C17.72098035 17.31544331 16.58847186 19.6427356 14.8125 22.375 C14.1525 22.705 13.4925 23.035 12.8125 23.375 C13.10125 24.096875 13.39 24.81875 13.6875 25.5625 C14.05875 26.490625 14.43 27.41875 14.8125 28.375 C15.18375 29.2 15.555 30.025 15.9375 30.875 C16.86938223 33.53752066 16.97243416 35.57615212 16.8125 38.375 C14.8325 38.87 14.8325 38.87 12.8125 39.375 C12.40257812 38.52035156 11.99265625 37.66570312 11.5703125 36.78515625 C10.76207031 35.12806641 10.76207031 35.12806641 9.9375 33.4375 C9.40382812 32.33535156 8.87015625 31.23320312 8.3203125 30.09765625 C7.09590155 27.28095489 7.09590155 27.28095489 4.8125 26.375 C2.94193209 26.1474985 1.06564042 25.96537189 -0.8125 25.8125 C-2.58625 25.668125 -4.36 25.52375 -6.1875 25.375 C-6.1875 29.665 -6.1875 33.955 -6.1875 38.375 C-8.1675 38.87 -8.1675 38.87 -10.1875 39.375 C-12.00315436 37.55934564 -11.31611899 35.06230038 -11.32644653 32.64611816 C-11.3244223 31.84508667 -11.32239807 31.04405518 -11.3203125 30.21875 C-11.32126923 29.40128296 -11.32222595 28.58381592 -11.32321167 27.74157715 C-11.32389345 26.00984622 -11.32203929 24.27811276 -11.31787109 22.54638672 C-11.31252279 19.88633518 -11.31781612 17.2264525 -11.32421875 14.56640625 C-11.32355797 12.88802046 -11.3222768 11.20963477 -11.3203125 9.53125 C-11.32233673 8.73021851 -11.32436096 7.92918701 -11.32644653 7.10388184 C-11.28922371 -1.60459478 -7.68447441 0.11278081 0 0 Z " fill="#FAFBFC" transform="translate(144.1875,357.625)"/>
<path d="M0 0 C3.625 0.375 3.625 0.375 7 1 C8.9687255 5.89796597 10.93136295 10.79824747 12.8828125 15.703125 C14.12649567 18.82736401 15.38568022 21.94316751 16.6796875 25.046875 C17.13601563 26.16578125 17.59234375 27.2846875 18.0625 28.4375 C18.46597656 29.40558594 18.86945313 30.37367188 19.28515625 31.37109375 C20.08765948 34.32237611 19.83970587 36.09007588 19 39 C17.35 38.67 15.7 38.34 14 38 C13.34 35.36 12.68 32.72 12 30 C6.06 30 0.12 30 -6 30 C-6.99 32.97 -7.98 35.94 -9 39 C-10.65 38.67 -12.3 38.34 -14 38 C-13.43469437 33.01935984 -12.34519412 28.72438117 -10.56640625 24.04296875 C-10.32840805 23.41393143 -10.09040985 22.7848941 -9.84519958 22.13679504 C-9.34520086 20.82041381 -8.84166223 19.50537206 -8.3347168 18.19165039 C-7.55916422 16.17884258 -6.79742131 14.1611855 -6.03710938 12.14257812 C-2.27404686 2.27404686 -2.27404686 2.27404686 0 0 Z " fill="#F2F6F8" transform="translate(340,358)"/>
<path d="M0 0 C2.5625 0.5625 2.5625 0.5625 4.56152344 3.20288086 C7.749337 8.55518715 9.68247614 14.28910614 11.8125 20.125 C12.27140625 21.34380859 12.7303125 22.56261719 13.203125 23.81835938 C13.63625 24.99333984 14.069375 26.16832031 14.515625 27.37890625 C14.90911133 28.44568604 15.30259766 29.51246582 15.70800781 30.61157227 C16.52715594 33.44044183 16.73939199 35.64006879 16.5625 38.5625 C14.5825 39.0575 14.5825 39.0575 12.5625 39.5625 C10.8997974 36.88771756 9.56266187 34.5629856 8.5625 31.5625 C2.6225 31.2325 -3.3175 30.9025 -9.4375 30.5625 C-9.7675 32.5425 -10.0975 34.5225 -10.4375 36.5625 C-11.0975 37.5525 -11.7575 38.5425 -12.4375 39.5625 C-13.7575 39.2325 -15.0775 38.9025 -16.4375 38.5625 C-15.95312973 30.78351346 -13.29521307 23.9998181 -10.5625 16.75 C-10.11519531 15.52345703 -9.66789063 14.29691406 -9.20703125 13.03320312 C-4.75843315 1.09809996 -4.75843315 1.09809996 0 0 Z " fill="#F3F6F8" transform="translate(260.4375,357.4375)"/>
<path d="M0 0 C1.11375 0.7425 1.11375 0.7425 2.25 1.5 C1.92 2.82 1.59 4.14 1.25 5.5 C0.0125 5.2525 0.0125 5.2525 -1.25 5 C-6.86309111 4.19812984 -12.71437788 3.42267537 -17.75 6.5 C-21.46385378 10.61535148 -22.34187477 13.88602538 -22.0703125 19.25390625 C-21.41816454 23.82689497 -20.12855074 27.24308609 -16.625 30.4375 C-11.39045708 32.37200499 -6.0740076 31.99699987 -0.75 30.5 C-0.75 27.86 -0.75 25.22 -0.75 22.5 C-2.4 22.5 -4.05 22.5 -5.75 22.5 C-6.3125 20.5625 -6.3125 20.5625 -6.75 18.5 C-5.75 17.5 -5.75 17.5 -3.5 17.3671875 C-2.5925 17.36976563 -1.685 17.37234375 -0.75 17.375 C0.61125 17.37113281 0.61125 17.37113281 2 17.3671875 C4.25 17.5 4.25 17.5 5.25 18.5 C5.45511024 20.76500305 5.56412476 23.03904377 5.625 25.3125 C5.67398438 26.55644531 5.72296875 27.80039062 5.7734375 29.08203125 C5.25 32.5 5.25 32.5 2.8515625 34.88671875 C-3.04755749 38.54488174 -8.92833836 38.14327072 -15.75 37.5 C-20.44030205 35.96993195 -23.62020754 33.27825843 -26.25 29.125 C-28.86217254 22.9357984 -28.69290712 16.04320398 -27.75 9.5 C-25.79810398 4.98122702 -22.98297006 2.43940576 -19.125 -0.5 C-13.05989835 -2.29706715 -5.81609601 -2.908048 0 0 Z " fill="#F5F8F9" transform="translate(118.75,359.5)"/>
<path d="M0 0 C1.67542976 0.28604898 3.34385343 0.61781233 5 1 C5.01458252 1.76143311 5.02916504 2.52286621 5.04418945 3.30737305 C5.11880541 6.76791888 5.21542259 10.22751445 5.3125 13.6875 C5.33505859 14.88568359 5.35761719 16.08386719 5.38085938 17.31835938 C5.41630859 18.47529297 5.45175781 19.63222656 5.48828125 20.82421875 C5.51446533 21.88729248 5.54064941 22.95036621 5.56762695 24.0456543 C6.05445981 27.37211642 7.02469581 29.30117443 9 32 C12.13871188 33.56935594 14.53855822 33.35201103 18 33 C21.15954305 30.45862841 22.71540886 28.85377341 24 25 C24.14889747 23.15533558 24.2479101 21.30642725 24.31640625 19.45703125 C24.35830078 18.38388672 24.40019531 17.31074219 24.44335938 16.20507812 C24.48267578 15.08552734 24.52199219 13.96597656 24.5625 12.8125 C24.60568359 11.68134766 24.64886719 10.55019531 24.69335938 9.38476562 C24.79949099 6.58996646 24.90154385 3.79507838 25 1 C26.875 0.375 26.875 0.375 29 0 C32.05932947 3.05932947 31.29376202 6.13415054 31.32226562 10.31640625 C31.31904297 11.40824219 31.31582031 12.50007813 31.3125 13.625 C31.32861328 14.69363281 31.34472656 15.76226562 31.36132812 16.86328125 C31.36528217 23.29256341 30.81519997 28.188191 28 34 C22.82316659 39.04741257 18.01061459 39.47392242 11.0234375 39.40625 C7.11543645 38.88114392 5.15929508 37.61636787 2.3046875 34.99609375 C-2.01186903 28.39202073 -1.26969872 20.70458679 -1.1875 13.125 C-1.1865332 11.39636719 -1.1865332 11.39636719 -1.18554688 9.6328125 C-1.14048144 1.14048144 -1.14048144 1.14048144 0 0 Z " fill="#F3F6F8" transform="translate(170,358)"/>
<path d="M0 0 C12.46903101 -0.37036726 12.46903101 -0.37036726 14.8984375 1.32421875 C16.59936481 3.91179965 16.3140521 5.98509986 16 9 C15.01 10.485 15.01 10.485 14 12 C14.99 12.33 15.98 12.66 17 13 C17.25 16.3125 17.25 16.3125 17 20 C14.63390128 22.55167509 13.2537738 22.97701324 9.765625 23.29296875 C8.60546875 23.25816406 7.4453125 23.22335937 6.25 23.1875 C4.1875 23.125625 2.125 23.06375 0 23 C0 15.41 0 7.82 0 0 Z " fill="#F8FAFB" transform="translate(183,415)"/>
<path d="M0 0 C3.69230769 0.69230769 3.69230769 0.69230769 5 2 C5.08790975 4.29151417 5.10694038 6.58572524 5.09765625 8.87890625 C5.0962413 9.5655687 5.09482635 10.25223114 5.09336853 10.95970154 C5.08775479 13.16067801 5.07520007 15.36155409 5.0625 17.5625 C5.05748676 19.05143083 5.05292355 20.54036324 5.04882812 22.02929688 C5.03863021 25.68626805 5.01905779 29.34302117 5 33 C10.61 33 16.22 33 22 33 C22.33 34.65 22.66 36.3 23 38 C21.34605883 39.65394117 19.39684587 39.12999683 17.125 39.1328125 C16.14015625 39.13410156 15.1553125 39.13539063 14.140625 39.13671875 C13.10421875 39.13285156 12.0678125 39.12898438 11 39.125 C9.44539063 39.13080078 9.44539063 39.13080078 7.859375 39.13671875 C6.87453125 39.13542969 5.8896875 39.13414062 4.875 39.1328125 C3.96492188 39.13168457 3.05484375 39.13055664 2.1171875 39.12939453 C0 39 0 39 -1 38 C-1.10099488 35.27275721 -1.13970529 32.57137477 -1.1328125 29.84375 C-1.13376923 29.02628296 -1.13472595 28.20881592 -1.13571167 27.36657715 C-1.13639345 25.63484622 -1.13453929 23.90311276 -1.13037109 22.17138672 C-1.12502279 19.51133518 -1.13031612 16.8514525 -1.13671875 14.19140625 C-1.13605797 12.51302046 -1.1347768 10.83463477 -1.1328125 9.15625 C-1.13483673 8.35521851 -1.13686096 7.55418701 -1.13894653 6.72888184 C-1.11495079 1.11495079 -1.11495079 1.11495079 0 0 Z " fill="#EFF3F6" transform="translate(298,358)"/>
<path d="M0 0 C3.52848105 0.04594376 6.3903595 0.12582722 9.5 1.875 C11.8125 4.3125 11.8125 4.3125 12.3125 7.875 C11.8125 11.3125 11.8125 11.3125 9.8125 14.3125 C9.1525 14.3125 8.4925 14.3125 7.8125 14.3125 C8.3075 15.034375 8.8025 15.75625 9.3125 16.5 C10.89169285 19.46098659 11.09428312 21.02503029 10.8125 24.3125 C9.8225 23.9825 8.8325 23.6525 7.8125 23.3125 C7.4 22.3225 6.9875 21.3325 6.5625 20.3125 C5.985 19.3225 5.4075 18.3325 4.8125 17.3125 C1.21864946 16.33376462 1.21864946 16.33376462 -2.1875 16.3125 C-2.1875 18.6225 -2.1875 20.9325 -2.1875 23.3125 C-3.5075 23.3125 -4.8275 23.3125 -6.1875 23.3125 C-6.21637512 19.66668313 -6.23425585 16.02089537 -6.25 12.375 C-6.25837891 11.33408203 -6.26675781 10.29316406 -6.27539062 9.22070312 C-6.28022461 7.73666992 -6.28022461 7.73666992 -6.28515625 6.22265625 C-6.29039307 5.30621338 -6.29562988 4.38977051 -6.30102539 3.44555664 C-6.08168452 -0.67569318 -3.58516901 0.09192741 0 0 Z " fill="#E5ECF0" transform="translate(342.1875,413.6875)"/>
<path d="M0 0 C4.39742895 0.03426568 7.30617288 0.26534983 10.75 3.25 C12.14935013 6.04870027 12.00265405 8.15498792 11.75 11.25 C10.25 13.125 10.25 13.125 8.75 14.25 C9.08 15.1575 9.41 16.065 9.75 17 C10.75 20.25 10.75 20.25 10.75 24.25 C9.76 24.25 8.77 24.25 7.75 24.25 C7.42 23.115625 7.09 21.98125 6.75 20.8125 C6.02812632 18.84506575 6.02812632 18.84506575 4.75 17.25 C1.95799134 16.280782 -0.24397579 16.29927909 -3.25 16.25 C-3.25 18.89 -3.25 21.53 -3.25 24.25 C-4.24 24.25 -5.23 24.25 -6.25 24.25 C-6.27887236 20.43751574 -6.29675492 16.6250593 -6.3125 12.8125 C-6.32087891 11.72388672 -6.32925781 10.63527344 -6.33789062 9.51367188 C-6.34111328 8.47919922 -6.34433594 7.44472656 -6.34765625 6.37890625 C-6.35289307 5.42056885 -6.35812988 4.46223145 -6.36352539 3.47485352 C-6.14720592 -0.764543 -3.69709748 0.05931172 0 0 Z " fill="#EEF2F5" transform="translate(240.25,413.75)"/>
<path d="M0 0 C13.92826705 -0.4220687 13.92826705 -0.4220687 18 3 C18.59375 5.15625 18.59375 5.15625 18.5 7.5 C18.4896875 8.2734375 18.479375 9.046875 18.46875 9.84375 C18 12 18 12 16.94921875 13.76953125 C13.90978246 15.68821348 10.77974935 15.31279555 7.3125 15.1875 C4.899375 15.125625 2.48625 15.06375 0 15 C0 10.05 0 5.1 0 0 Z " fill="#3A6F91" transform="translate(138,363)"/>
<path d="M0 0 C1.65 0 3.3 0 5 0 C6.1807048 2.89030435 7.34200121 5.78803199 8.5 8.6875 C8.83386719 9.50412109 9.16773438 10.32074219 9.51171875 11.16210938 C12.49311441 18.67644333 12.49311441 18.67644333 12 23 C11.01 22.67 10.02 22.34 9 22 C8.3125 19.9375 8.3125 19.9375 8 18 C6.20739868 18.05995322 4.41574205 18.1487241 2.625 18.25 C1.62726563 18.29640625 0.62953125 18.3428125 -0.3984375 18.390625 C-3.1526477 18.72160885 -3.1526477 18.72160885 -4.3515625 21.046875 C-4.56554687 21.69140625 -4.77953125 22.3359375 -5 23 C-5.99 22.67 -6.98 22.34 -8 22 C-5.92957946 14.39162534 -3.14169523 7.2271408 0 0 Z " fill="#EBF0F3" transform="translate(291,415)"/>
<path d="M0 0 C0.33 0.66 0.66 1.32 1 2 C1.66 2 2.32 2 3 2 C3.07000622 30.11107182 3.122947 58.22213062 3.15543652 86.33327198 C3.1709213 99.38505272 3.19204157 112.43677937 3.22631836 125.48852539 C3.25617142 136.86122268 3.27556327 148.23388082 3.28226548 159.6066162 C3.28618469 165.63129026 3.29542875 171.65585226 3.31719017 177.68049049 C3.33749066 183.3463573 3.34384686 189.01206545 3.33932304 194.67796516 C3.34015114 196.7617504 3.34615492 198.84554071 3.35761642 200.92929459 C3.37245981 203.76607427 3.36898353 206.60224855 3.36076355 209.43904114 C3.36950207 210.27074745 3.3782406 211.10245375 3.38724393 211.95936328 C3.34274028 217.60981515 3.34274028 217.60981515 1.47692853 219.73390597 C0.98954212 220.151717 0.5021557 220.56952803 0 221 C0 219.35 0 217.7 0 216 C0.66 216 1.32 216 2 216 C2 146.37 2 76.74 2 5 C1.34 5 0.68 5 0 5 C0 3.35 0 1.7 0 0 Z " fill="#94A7B3" transform="translate(153,112)"/>
<path d="M0 0 C2.24940295 -0.08119503 4.49964871 -0.13927819 6.75 -0.1875 C8.00296875 -0.22230469 9.2559375 -0.25710938 10.546875 -0.29296875 C14.14109357 0.01197061 15.44725126 0.54394629 18 3 C17.6875 6.375 17.6875 6.375 17 10 C13.2632157 12.49118953 11.25548181 12.2065226 6.8125 12.125 C5.54019531 12.10695313 4.26789063 12.08890625 2.95703125 12.0703125 C1.49330078 12.03550781 1.49330078 12.03550781 0 12 C0 8.04 0 4.08 0 0 Z " fill="#396E90" transform="translate(215,380)"/>
<path d="M0 0 C1.8975 -0.061875 3.795 -0.12375 5.75 -0.1875 C7.35101563 -0.23970703 7.35101563 -0.23970703 8.984375 -0.29296875 C12.30027855 0.02917214 13.59016673 0.77148914 16 3 C15.6875 6.375 15.6875 6.375 15 10 C10.25368713 13.16420858 5.63243123 12.12112755 0 12 C0 8.04 0 4.08 0 0 Z " fill="#3E7292" transform="translate(215,363)"/>
<path d="M0 0 C1.828125 0.21484375 1.828125 0.21484375 4 1 C5.484375 3.06640625 5.484375 3.06640625 6.75 5.5625 C7.17796875 6.38878906 7.6059375 7.21507812 8.046875 8.06640625 C8.36140625 8.70449219 8.6759375 9.34257812 9 10 C9.39832031 9.278125 9.79664063 8.55625 10.20703125 7.8125 C10.73683594 6.884375 11.26664062 5.95625 11.8125 5 C12.33457031 4.071875 12.85664063 3.14375 13.39453125 2.1875 C13.92433594 1.465625 14.45414062 0.74375 15 0 C15.99 0 16.98 0 18 0 C17.43599447 3.65962678 16.46451605 6.18869105 14.5 9.3125 C11.97540702 13.64868852 11.27181306 17.01676052 11 22 C10.01 22.33 9.02 22.66 8 23 C7.92523438 22.39414062 7.85046875 21.78828125 7.7734375 21.1640625 C6.78538107 14.86762445 4.78882128 10.41491784 1.2421875 5.12890625 C0 3 0 3 0 0 Z " fill="#F4F7F8" transform="translate(385,415)"/>
<path d="M0 0 C2.35418843 2.35418843 2.99608031 4.25583671 4.125 7.375 C4.47820312 8.33148438 4.83140625 9.28796875 5.1953125 10.2734375 C6 13 6 13 6 17 C2.37 17 -1.26 17 -5 17 C-4.46246904 10.81839396 -2.45417612 5.673142 0 0 Z " fill="#3B7091" transform="translate(260,365)"/>
<path d="M0 0 C2.93280794 2.47902104 3.93871822 4.969262 5.1875 8.5625 C5.53167969 9.53316406 5.87585938 10.50382812 6.23046875 11.50390625 C7 14 7 14 7 16 C3.04 16 -0.92 16 -5 16 C-4.39363767 10.23955788 -2.24341721 5.27985631 0 0 Z " fill="#396E90" transform="translate(342,366)"/>
<path d="M0 0 C0.99 0 1.98 0 3 0 C3 6.6 3 13.2 3 20 C6.63 20 10.26 20 14 20 C14 20.99 14 21.98 14 23 C9.38 23 4.76 23 0 23 C0 15.41 0 7.82 0 0 Z " fill="#FDFDFD" transform="translate(98,415)"/>
<path d="M0 0 C1.64574566 -0.02688151 3.29161413 -0.04634123 4.9375 -0.0625 C5.85402344 -0.07410156 6.77054688 -0.08570313 7.71484375 -0.09765625 C10 0 10 0 11 1 C11.1875 3.9375 11.1875 3.9375 11 7 C9 9 9 9 6.8359375 9.1953125 C4.55729167 9.13020833 2.27864583 9.06510417 0 9 C0 6.03 0 3.06 0 0 Z " fill="#427595" transform="translate(237,418)"/>
<path d="M0 0 C1.47906892 -0.02689216 2.95827483 -0.04634621 4.4375 -0.0625 C5.26121094 -0.07410156 6.08492188 -0.08570313 6.93359375 -0.09765625 C9 0 9 0 10 1 C10.04092937 3.33297433 10.04241723 5.66705225 10 8 C6.7 8 3.4 8 0 8 C0 5.36 0 2.72 0 0 Z " fill="#31698C" transform="translate(340,418)"/>
<path d="M0 0 C3.3 0 6.6 0 10 0 C10.625 2.375 10.625 2.375 11 5 C9 7 9 7 6.8359375 7.1953125 C5.61777344 7.16050781 5.61777344 7.16050781 4.375 7.125 C3.55773437 7.10695313 2.74046875 7.08890625 1.8984375 7.0703125 C1.27195313 7.04710937 0.64546875 7.02390625 0 7 C0 4.69 0 2.38 0 0 Z " fill="#3F7393" transform="translate(186,428)"/>
<path d="M0 0 C0.99 0 1.98 0 3 0 C3 7.59 3 15.18 3 23 C2.01 23 1.02 23 0 23 C0 15.41 0 7.82 0 0 Z " fill="#FBFCFD" transform="translate(146,415)"/>
<path d="M0 0 C2.44367471 3.66551207 2.39160432 5.80916991 2.625 10.1875 C2.66294678 10.88423828 2.70089355 11.58097656 2.73999023 12.29882812 C3.11333929 19.86401443 3.09061963 27.42822644 3 35 C3.66 35 4.32 35 5 35 C5 40.61 5 46.22 5 52 C4.67 52 4.34 52 4 52 C4 47.71 4 43.42 4 39 C3.34 39 2.68 39 2 39 C1.34 26.13 0.68 13.26 0 0 Z " fill="#A7B9C4" transform="translate(390,253)"/>
<path d="M0 0 C2.97 0 5.94 0 9 0 C9.625 2.375 9.625 2.375 10 5 C8 7 8 7 6.0546875 7.1953125 C4.03645833 7.13020833 2.01822917 7.06510417 0 7 C0 4.69 0 2.38 0 0 Z " fill="#497A99" transform="translate(186,418)"/>
<path d="M0 0 C0.33 0 0.66 0 1 0 C1.06058594 0.98742187 1.12117188 1.97484375 1.18359375 2.9921875 C1.26738281 4.27351563 1.35117187 5.55484375 1.4375 6.875 C1.51871094 8.15117188 1.59992188 9.42734375 1.68359375 10.7421875 C1.79206027 13.88300152 1.79206027 13.88300152 3 16 C4.2892819 25.94816279 4.10787203 35.99187244 4 46 C3.67 46 3.34 46 3 46 C2.00736571 36.64087671 1.89268462 27.39605802 2 18 C1.34 18 0.68 18 0 18 C0 12.06 0 6.12 0 0 Z " fill="#9BB0BD" transform="translate(377,114)"/>
<path d="M0 0 C2.95183101 2.95183101 3.08663988 5.95511947 4 10 C1.69 10 -0.62 10 -3 10 C-2.49287967 6.28111761 -1.88391785 3.26545761 0 0 Z " fill="#407494" transform="translate(293,419)"/>
<path d="M0 0 C0.33 0 0.66 0 1 0 C1 4.62 1 9.24 1 14 C1.66 14 2.32 14 3 14 C3.33 20.93 3.66 27.86 4 35 C1.58445758 31.37668637 1.64710389 29.24998864 1.4375 24.9375 C1.36632289 20.30460727 1.36632289 20.30460727 0 16 C-0.07181821 13.28239892 -0.09299506 10.59140612 -0.0625 7.875 C-0.05798828 7.12089844 -0.05347656 6.36679688 -0.04882812 5.58984375 C-0.03703499 3.72652873 -0.01909942 1.86325445 0 0 Z " fill="#8FA6B4" transform="translate(321,130)"/>
<path d="M0 0 C0.33 0 0.66 0 1 0 C1 4.95 1 9.9 1 15 C1.66 15 2.32 15 3 15 C3 20.28 3 25.56 3 31 C2.67 31 2.34 31 2 31 C2 27.04 2 23.08 2 19 C1.34 19 0.68 19 0 19 C0 12.73 0 6.46 0 0 Z " fill="#93AAB8" transform="translate(335,274)"/>
<path d="M0 0 C0.33 0 0.66 0 1 0 C1.06058594 0.92683594 1.12117188 1.85367188 1.18359375 2.80859375 C1.26738281 4.00613281 1.35117187 5.20367187 1.4375 6.4375 C1.51871094 7.63246094 1.59992188 8.82742187 1.68359375 10.05859375 C1.67656114 12.88570244 1.67656114 12.88570244 3 14 C3.07319621 16.69654854 3.09242537 19.36691458 3.0625 22.0625 C3.05798828 22.82111328 3.05347656 23.57972656 3.04882812 24.36132812 C3.0370068 26.24091871 3.01907078 28.12046899 3 30 C2.67 30 2.34 30 2 30 C1.93941406 29.22914063 1.87882812 28.45828125 1.81640625 27.6640625 C1.73261719 26.66117188 1.64882813 25.65828125 1.5625 24.625 C1.48128906 23.62726563 1.40007812 22.62953125 1.31640625 21.6015625 C1.15034374 19.02072387 1.15034374 19.02072387 0 17 C-0.07194869 14.11629667 -0.09291708 11.25760336 -0.0625 8.375 C-0.05798828 7.57320312 -0.05347656 6.77140625 -0.04882812 5.9453125 C-0.03703168 3.96350994 -0.01909605 1.98174567 0 0 Z " fill="#A2B5C1" transform="translate(326,180)"/>
<path d="M0 0 C-3.12936175 2.76852718 -5.05053813 3.36539759 -9.203125 3.29296875 C-10.67265625 3.2784668 -10.67265625 3.2784668 -12.171875 3.26367188 C-13.69554687 3.2259668 -13.69554687 3.2259668 -15.25 3.1875 C-16.28125 3.17396484 -17.3125 3.16042969 -18.375 3.14648438 C-20.91719792 3.11117607 -23.45833223 3.06186036 -26 3 C-26.33 2.34 -26.66 1.68 -27 1 C-20.07 1.33 -13.14 1.66 -6 2 C-6 1.34 -6 0.68 -6 0 C-2.25 -1.125 -2.25 -1.125 0 0 Z " fill="#98ADB9" transform="translate(147,340)"/>
</svg>
